<svg width="65" height="65" viewBox="0 0 65 65" fill="none" xmlns="http://www.w3.org/2000/svg">
<path d="M50.4583 13.5417V55.3585L32.8939 47.8309L32.5 47.662L32.1061 47.8309L14.5417 55.3585V13.5417C14.5417 12.3197 14.9654 11.299 15.8407 10.4252C16.7168 9.55061 17.7384 9.12661 18.959 9.125H46.0417C47.2637 9.125 48.2856 9.5488 49.1614 10.4246C50.0372 11.3004 50.4598 12.321 50.4583 13.5405V13.5417Z" fill="white" stroke="#BF4745" stroke-width="2"/>
<path d="M32.5 34.8798L36.8508 37.5113C37.6476 37.9936 38.6226 37.2807 38.4129 36.379L37.2597 31.4306L41.1073 28.0968C41.8097 27.4887 41.4323 26.3355 40.5097 26.2621L35.446 25.8323L33.4645 21.1565C33.1081 20.3073 31.8919 20.3073 31.5355 21.1565L29.554 25.8218L24.4903 26.2516C23.5677 26.325 23.1903 27.4782 23.8927 28.0863L27.7403 31.4202L26.5871 36.3686C26.3774 37.2702 27.3524 37.9831 28.1492 37.5008L32.5 34.8798Z" fill="#BF4745"/>
</svg>
