<svg xmlns="http://www.w3.org/2000/svg" width="38" height="25" viewBox="0 0 38 25" fill="none">
  <g clip-path="url(#clip0_5095_1483)">
    <path d="M32.2193 7.17557C31.3681 7.16676 30.5198 7.13153 29.6686 7.11391C29.2563 7.1051 28.7877 7.04932 28.3695 7.09923C28.3132 7.1051 28.2568 7.11391 28.2034 7.12566C27.6636 7.23429 27.2395 7.59542 26.7975 7.89195C26.3912 8.165 25.9819 8.43511 25.5637 8.68761C24.407 9.38931 24.3981 9.37169 23.2413 10.0734C22.0846 10.7751 22.0817 10.7692 20.9249 11.4709C19.8631 12.1168 18.131 12.1521 17.0692 11.5062C15.9154 10.8045 15.8946 10.8338 14.7409 10.1321C13.5842 9.43041 13.5901 9.42454 12.4334 8.7199C11.2766 8.0182 11.3063 7.96829 10.1525 7.26658C9.5445 6.89665 8.61912 7.07574 7.93398 7.11685C7.22215 7.16089 6.51328 7.19318 5.80145 7.19318C5.27054 7.19318 4.90869 7.55138 4.90869 8.07692C4.90869 8.60246 5.27054 9.03699 5.80145 9.03699C6.52218 9.03699 6.44803 9.07222 7.24588 9.07222C8.04372 9.07222 8.74369 10.0294 8.74369 11.2654C8.74369 12.4193 8.63098 12.4193 8.63098 13.5731C8.63098 14.7269 8.65175 14.7269 8.65175 15.8808C8.65175 17.0346 8.71403 17.0346 8.71403 18.1885C8.71403 18.714 9.12037 19.1691 9.65128 19.1691C10.1822 19.1691 10.55 18.714 10.55 18.1885C10.55 16.6442 10.5974 16.6442 10.5974 15.1028C10.5974 13.5614 10.6093 13.5584 10.6093 12.017C10.6093 10.781 11.4487 10.3464 12.5105 10.9924C13.5041 11.5972 13.5011 11.606 14.4947 12.2108C15.4913 12.8156 15.5031 12.798 16.4967 13.4028C17.4933 14.0076 17.5348 13.9401 18.5314 14.5449C18.7449 14.6741 18.8487 14.8062 19.1068 14.7563C19.3441 14.7093 19.5102 14.5655 19.7089 14.4451C19.9135 14.3218 20.1212 14.2043 20.3317 14.0928C20.7381 13.8755 21.1385 13.6612 21.5329 13.4234C22.5295 12.8186 22.4732 12.7275 23.4697 12.1227C24.1341 11.7195 24.7975 11.3153 25.4599 10.9102C26.5217 10.2642 27.3581 10.7839 27.3581 12.02C27.3581 13.5643 27.4026 13.5643 27.4026 15.1057C27.4026 16.6471 27.364 16.65 27.364 18.1914C27.364 18.717 27.8416 19.0957 28.3725 19.0957C28.9034 19.0957 29.3038 18.717 29.3038 18.1914C29.3038 17.0376 29.3661 17.0376 29.3661 15.8837C29.3661 14.7299 29.3038 14.7299 29.3038 13.576C29.3038 12.4222 29.2712 12.4222 29.2712 11.2683C29.2712 10.0323 29.9771 9.04286 30.7749 9.04286C31.4956 9.04286 31.4956 9.03405 32.2193 9.03405C32.7502 9.03405 33.2426 8.60833 33.2426 8.08279C33.2426 7.55725 32.7502 7.17557 32.2193 7.17557Z" fill="#6B1526"/>
    <path d="M37.9882 18.3588C37.6234 16.4533 37.4573 14.4979 37.49 12.5396C37.5078 10.5901 37.6561 8.62595 37.9497 6.71461C38.0031 6.39753 37.9111 6.10393 37.6709 5.88666C34.8918 3.3206 31.2347 1.8115 27.5302 0.913088C24.7393 0.478561 21.8682 0.126241 19.012 0.00292969C17.1019 0.0675216 15.1888 0.223129 13.3173 0.452137C11.431 0.78684 9.54756 1.19788 7.74425 1.70581C5.04819 2.67469 2.39958 3.95184 0.332296 5.86611C0.0920526 6.08338 -0.035484 6.40633 0.0179034 6.72636C0.37382 8.63476 0.516186 10.5872 0.465765 12.5426C0.439071 14.4891 0.326364 16.4533 0.0742568 18.3676C0.0208694 18.6847 0.053495 19.0399 0.296705 19.2572C1.7174 20.4463 3.36945 21.4709 5.08378 22.337C5.92315 22.7217 6.8515 22.9771 7.77688 23.2854C10.4403 24.2601 13.2817 24.8444 16.1557 24.9383C18.0273 24.9853 19.9996 25.0147 21.8712 25C23.7842 24.8649 25.6884 24.5772 27.5243 24.1456C31.1191 22.9947 34.8769 21.7352 37.6916 19.219C37.9319 19.0018 38.0446 18.6817 37.9912 18.3617L37.9882 18.3588ZM35.7282 9.15443C35.6184 11.3828 35.5888 13.6993 35.6659 15.9278C35.7756 17.1579 35.2536 18.8197 34.1888 19.4627C29.6776 22.1638 24.2499 23.0505 19.006 23.0505C16.3723 22.9419 13.7029 22.9653 11.1611 22.2989C8.63701 21.5531 6.03289 20.8338 3.84994 19.4216C2.78515 18.7786 2.13561 17.1491 2.24535 15.919C2.53008 13.6905 2.55381 11.3858 2.2928 9.15443C2.18306 7.92424 2.79108 6.30945 3.85587 5.66353C6.05069 4.28655 8.60735 3.43217 11.167 2.80093C13.7266 2.29301 16.3812 2.03464 19.006 1.9172C20.7589 2.00528 22.5266 2.14914 24.2558 2.33117C25.1397 2.46036 25.985 2.70111 26.8273 2.88901C28.5832 3.18848 30.2678 3.70816 31.819 4.48326C32.6525 4.85026 33.4088 5.27891 34.1266 5.71344C35.1913 6.35642 35.8379 7.92424 35.7282 9.15443Z" fill="#6B1526"/>
    <path d="M22.0281 16.7117C20.0023 16.7851 18.0092 16.697 15.9834 16.7587C13.584 16.3799 11.9022 18.5232 15.1945 18.8579C15.8648 18.9812 16.5203 18.8579 17.1965 18.9078C18.9405 18.9254 20.6786 18.8696 22.4314 18.8814C25.866 18.8256 25 16.5238 22.0281 16.7117Z" fill="#6B1526"/>
  </g>
  <defs>
    <clipPath id="clip0_5095_1483">
      <rect width="38" height="25" fill="white"/>
    </clipPath>
  </defs>
</svg>